PathFileType	4	(X/Y/Z)	\\147.46.242.158\로컬 디스크 (e)\MOCAP Data\Iguana Capture\iguana\Project 2\Capture day 7\Session 2\Take06.trc
DataRate	CameraRate	NumFrames	NumMarkers	Units	OrigDataRate	OrigDataStartFrame	OrigNumFrames
120.0	120.0	10	23	mm	120.0	49	14620
Frame#	Time	ana:head1			ana:head2			ana:bone1			ana:bone2			ana:bone3			ana:tail1			ana:tail2			ana:tail3			ana:tail4			ana:Rforefoot1			ana:Rforefoot2			ana:Rforefoot3			ana:Lforefoot1			ana:Lforefoot2			ana:Lforefoot3			ana:RhindLeg1			ana:RhindLeg2			ana:RhindLeg3			ana:RhindLeg4			ana:LhindLeg1			ana:LhindLeg2			ana:LhindLeg3			ana:LhindLeg4			
		X1	Y1	Z1	X2	Y2	Z2	X3	Y3	Z3	X4	Y4	Z4	X5	Y5	Z5	X6	Y6	Z6	X7	Y7	Z7	X8	Y8	Z8	X9	Y9	Z9	X10	Y10	Z10	X11	Y11	Z11	X12	Y12	Z12	X13	Y13	Z13	X14	Y14	Z14	X15	Y15	Z15	X16	Y16	Z16	X17	Y17	Z17	X18	Y18	Z18	X19	Y19	Z19	X20	Y20	Z20	X21	Y21	Z21	X22	Y22	Z22	X23	Y23	Z23	

9511	79.250	85.47285	-364.86609	65.38684	74.89506	-366.91559	64.94784	53.08598	-372.23901	52.30825	28.05061	-377.95157	41.16062	-3.99472	-383.13373	27.95123	-32.42286	-386.67142	17.04667	-62.13611	-368.20004	10.60747	-81.58086	-327.58044	8.92064	-93.94365	-289.33810	10.08697	66.43623	-380.68164	34.52523	66.21188	-389.28204	20.51406	74.12431	-385.04944	10.63598	52.40497	-360.07306	35.45064	47.01446	-358.13351	24.36445	57.77759	-366.63474	8.90575	0.38710	-394.45868	22.44185	6.89648	-412.43967	20.26002	-5.17762	-423.22916	4.76645	6.62577	-427.28638	5.87561	-1.01015	-376.08722	21.00823	5.89375	-360.12823	25.44727	-0.56167	-349.46518	5.85013	9.41732	-341.25317	7.55631	
9512	79.258	85.54067	-364.57349	65.50244	74.93414	-366.59274	64.99562	53.11904	-371.80164	52.32628	28.05610	-377.53043	41.23703	-3.88351	-383.06757	28.02916	-32.36272	-386.51569	17.16777	-62.13618	-368.18936	10.60262	-81.58865	-327.57742	8.91695	-93.95803	-289.31436	10.09129	66.44634	-380.29718	34.61536	66.36211	-389.00803	20.72455	73.70502	-384.02231	10.03853	52.28459	-359.62695	35.72881	47.09566	-357.70532	24.43896	57.96125	-366.28659	9.06485	0.52763	-394.07507	22.37334	6.92189	-412.20386	20.35538	-5.08592	-423.14703	4.82385	6.59381	-427.31171	5.87217	-0.98853	-375.77863	21.07932	5.87537	-359.79407	25.62923	-0.49284	-349.40451	5.84937	9.37976	-341.19022	7.50247	
9513	79.267	85.57037	-364.17566	65.58626	74.94929	-366.22235	65.05643	53.13644	-371.37381	52.42671	28.01021	-377.13846	41.39058	-3.76025	-383.00046	28.11691	-32.31073	-386.35004	17.24277	-62.13990	-368.18677	10.61296	-81.60102	-327.58014	8.91986	-93.96024	-289.30563	10.10120	66.44489	-379.88330	34.71888	66.48542	-388.72217	21.01811	73.43768	-383.33142	9.68947	52.18624	-359.20062	36.01889	47.13340	-357.23682	24.53070	58.31741	-365.83295	9.30013	0.63404	-393.72174	22.36430	6.94618	-411.94016	20.42449	-4.82927	-423.00308	4.78988	6.60422	-427.33102	5.84782	-0.95999	-375.47894	21.12954	5.90240	-359.46634	25.76215	-0.45620	-349.35257	5.86360	9.44117	-341.12451	7.38195	
9514	79.275	85.55914	-363.80222	65.73472	74.94154	-365.84274	65.12062	53.09983	-370.95944	52.59349	27.93077	-376.76907	41.59845	-3.60111	-382.92209	28.23206	-32.26816	-386.19318	17.28661	-62.14424	-368.18179	10.61792	-81.60884	-327.58081	8.91912	-93.97125	-289.31387	10.08812	66.43649	-379.42703	34.83273	66.53529	-388.40430	21.28416	73.38525	-383.04233	9.66964	52.19477	-358.74786	36.21915	47.11919	-356.70566	24.65477	58.72146	-365.24820	9.58964	0.69416	-393.41989	22.43489	6.95569	-411.65988	20.46664	-4.51950	-422.85126	4.70973	6.61603	-427.35974	5.82269	-0.92976	-375.18970	21.16162	5.97733	-359.14825	25.82044	-0.47406	-349.31073	5.90264	9.52825	-341.07578	7.24840	
9515	79.283	85.51929	-363.33804	65.85655	74.91186	-365.42673	65.25507	52.99934	-370.54657	52.83551	27.81322	-376.40601	41.86387	-3.40390	-382.81732	28.37141	-32.21858	-386.04434	17.30233	-62.15248	-368.18265	10.63697	-81.62186	-327.58292	8.91987	-93.96554	-289.33014	10.06807	66.45765	-378.92358	34.94611	66.51622	-388.04489	21.54342	73.63003	-383.12735	10.01998	52.36050	-358.25299	36.31912	47.06464	-356.00186	24.86883	59.08947	-364.47479	9.97301	0.73057	-393.15988	22.59014	6.96501	-411.35782	20.46280	-4.19412	-422.70361	4.60954	6.60951	-427.40845	5.79742	-0.87845	-374.89740	21.21140	6.10468	-358.81946	25.81391	-0.53950	-349.28500	5.95290	9.66318	-341.00473	7.06693	
9516	79.292	85.46584	-362.91513	66.06142	74.87325	-364.96988	65.45422	52.93440	-370.02676	53.01073	27.71403	-375.97116	42.09454	-3.17431	-382.67349	28.52559	-32.15326	-385.89819	17.30174	-62.15908	-368.17535	10.65844	-81.63411	-327.57922	8.91156	-93.96146	-289.34442	10.05307	66.48852	-378.35580	35.05571	66.48605	-387.58548	21.75486	73.94075	-383.29025	10.41389	52.70271	-357.65591	36.31557	46.98102	-355.03311	25.23969	59.31723	-363.41748	10.41567	0.77390	-392.90039	22.75843	6.99058	-411.05698	20.44556	-3.89925	-422.57520	4.51048	6.59163	-427.47708	5.76692	-0.81221	-374.57288	21.31188	6.31230	-358.45789	25.66058	-0.65331	-349.25702	6.02053	9.79515	-340.91241	6.88051	
9517	79.300	85.41005	-362.38654	66.26128	74.83320	-364.44781	65.71624	52.90222	-369.36020	53.13988	27.62736	-375.43597	42.32180	-2.91708	-382.43878	28.71503	-32.06167	-385.74118	17.28475	-62.13816	-368.14642	10.63421	-81.65272	-327.58081	8.90910	-93.95580	-289.34500	10.03815	66.54207	-377.66388	35.17237	66.44048	-387.00928	21.97861	74.29939	-383.47171	10.84638	53.04932	-356.93137	36.40589	46.88877	-353.75986	25.82857	59.40479	-362.07040	10.99642	0.85911	-392.62033	22.93671	7.03818	-410.73160	20.42598	-3.65661	-422.44370	4.45372	6.56248	-427.56595	5.74104	-0.72505	-374.22025	21.41802	6.42826	-358.08832	25.64183	-0.81785	-349.22025	6.11436	9.88454	-340.82178	6.69448	
9518	79.308	85.38291	-361.68826	66.44143	74.81009	-363.79910	66.02812	52.89932	-368.54187	53.26208	27.58102	-374.73956	42.52100	-2.62945	-382.05606	28.95295	-31.92109	-385.52255	17.28039	-62.09125	-368.10519	10.57942	-81.68430	-327.60049	8.91211	-93.95259	-289.35437	10.04856	66.61920	-376.80261	35.32401	66.41292	-386.27722	22.24010	74.63574	-383.51462	11.24711	53.36868	-356.03781	36.64425	46.87574	-352.11313	26.54963	59.38416	-360.27118	11.74748	1.03531	-392.22079	22.97834	7.10891	-410.35965	20.37358	-3.49138	-422.31717	4.44886	6.54347	-427.66507	5.67810	-0.60000	-373.80200	21.55412	6.55321	-357.63074	25.65665	-0.94719	-349.19238	6.17192	9.92168	-340.74451	6.53705	
9519	79.317	85.42542	-360.75778	66.64157	74.84129	-362.93433	66.35352	52.95978	-367.48337	53.40893	27.64321	-373.76599	42.66771	-2.24825	-381.48532	29.17460	-31.69022	-385.18069	17.32324	-61.98327	-368.04370	10.47444	-81.74764	-327.66071	8.94094	-93.94279	-289.38806	10.09849	66.72857	-375.72369	35.53565	66.44341	-385.33798	22.62107	74.73218	-383.22711	11.34737	53.58572	-354.89023	37.11065	46.98452	-350.10852	27.43574	59.37756	-357.97006	12.63900	1.31486	-391.69028	23.00422	7.20185	-409.86667	20.27901	-3.37750	-422.17896	4.51424	6.52084	-427.77621	5.58394	-0.38770	-373.28033	21.70299	6.71240	-357.04865	25.71002	-1.06143	-349.15265	6.23814	9.94595	-340.69769	6.40848	
9520	79.325	85.59913	-359.53204	66.90727	74.99073	-361.76633	66.71252	53.19083	-366.05612	53.56280	27.85698	-372.42300	42.79400	-1.48595	-380.63840	29.09685	-31.47688	-384.66568	17.65188	-61.84403	-367.95486	10.38511	-81.87389	-327.79465	9.01254	-93.90060	-289.45697	10.19333	66.93499	-374.33453	35.83133	66.58416	-384.18668	23.24644	74.71105	-382.55145	11.28997	53.69827	-353.45105	37.89952	47.30173	-347.75507	28.45974	59.62446	-355.09818	13.76078	1.75564	-390.98572	23.05322	7.32542	-409.18402	20.11200	-3.26455	-422.01715	4.64768	6.51244	-427.87051	5.44357	0.03889	-372.58145	21.81540	7.07864	-356.23932	25.73923	-1.15936	-349.14050	6.29278	9.88001	-340.68182	6.39299	
